<?xml version="1.0" encoding="UTF-8"?>
<svg xmlns="http://www.w3.org/2000/svg" viewBox="0 0 24 24">
  <g transform="translate(12, 12) scale(0.81231) translate(0, -0.5)">
    <g stroke="#60a088" fill="none" stroke-width="1" stroke-linecap="round" stroke-linejoin="round">
        <path d="M 0 -12 C 0 -12, -7 -2, -7 4 C -7 9, -3 13, 0 13 C 3 13, 7 9, 7 4 C 7 -2, 0 -12, 0 -12 Z" />
        <path d="M 0 -3 C 0 -3, -2 2, -2 5 C -2 7, -1 8.5, 0 8.5 C 1 8.5, 2 7, 2 5 C 2 2, 0 -3, 0 -3 Z" opacity="0.7" />
        <path d="M -10 4 Q -13 1 -10 -2" opacity="0.5" />
        <path d="M 10 4 Q 13 1 10 -2" opacity="0.5" />
        </g>
  </g>
</svg>
