<?xml version="1.0" encoding="UTF-8"?>
<svg xmlns="http://www.w3.org/2000/svg" viewBox="0 0 24 24">
  <g transform="translate(12, 12) scale(0.46933) translate(-21.95, -24)">
    <g stroke-linecap="round" stroke-linejoin="round">
        <g opacity="0.65" stroke="#c8a040" fill="none" stroke-width="1">
        <path d="M 0 8 Q 8 0, 16 8" />
        <path d="M 0 8 Q 8 16, 16 8" />
        <circle cx="8" cy="8" r="2.5" stroke-width="0.8" />
        </g>
        <g transform="translate(30,0)" opacity="0.45" stroke="#7888a0" fill="none" stroke-width="1">
        <path d="M 12 2 Q 4 2, 4 10 Q 4 16, 8 16" />
        <path d="M 8 10 Q 10 8, 10 12" stroke-width="0.7" />
        </g>
        <g transform="translate(0,30)" opacity="0.45" stroke="#7888a0" fill="none" stroke-width="1">
        <path d="M 4 16 L 4 6 Q 4 2, 8 2 Q 12 2, 12 6 L 12 10" />
        <path d="M 12 8 Q 12 5, 15 5 Q 18 5, 18 8 L 18 12" stroke-width="0.7" />
        <line x1="4" y1="16" x2="18" y2="16" stroke-width="0.7" />
        </g>
        <g transform="translate(30,30)" opacity="0.45" stroke="#7888a0" fill="none" stroke-width="0.8">
        <circle cx="8" cy="10" r="6" />
        <circle cx="8" cy="10" r="2" fill="#7888a0" fill-opacity="0.3" stroke="none" />
        <path d="M 2 4 Q 8 0, 14 4" stroke-width="0.6" opacity="0.5" />
        </g>
        </g>
  </g>
</svg>
