<?xml version="1.0" encoding="UTF-8"?>
<svg xmlns="http://www.w3.org/2000/svg" viewBox="0 0 24 24">
  <g transform="translate(12, 12)">
    <g fill="none" stroke-linecap="round" stroke-linejoin="round">
      <line x1="-10" y1="10" x2="9" y2="5" stroke="#a07a60" stroke-width="1.2" />
      <line x1="10" y1="10" x2="-9" y2="5" stroke="#a07a60" stroke-width="1.2" />
      <path d="M 0 -11 C 5 -5, 7 -1, 5 3.5 C 3.5 6, -3.5 6, -5 3.5 C -7 -1, -5 -5, 0 -11 Z" stroke="#e0a050" stroke-width="1" />
      <path d="M 0 -4 C 2.5 -1, 3 1.5, 1.8 3.5 C 1 4.6, -1 4.6, -1.8 3.5 C -3 1.5, -2.5 -1, 0 -4 Z" fill="#ffd700" fill-opacity="0.35" stroke="#ffd700" stroke-width="0.5" />
      <path d="M -6 -6 C -8.5 -2, -9 1.5, -6.5 4.5" stroke="#e09050" stroke-width="0.8" opacity="0.75" />
      <path d="M 6 -6 C 8.5 -2, 9 1.5, 6.5 4.5" stroke="#e09050" stroke-width="0.8" opacity="0.75" />
    </g>
    <circle cx="-3" cy="-11.5" r="0.5" fill="#ffd700" opacity="0.8" />
    <circle cx="4" cy="-12" r="0.45" fill="#ffd700" opacity="0.7" />
    <circle cx="8" cy="-9" r="0.4" fill="#ffd700" opacity="0.6" />
  </g>
</svg>
