<?xml version="1.0" encoding="UTF-8"?>
<svg xmlns="http://www.w3.org/2000/svg" viewBox="0 0 24 24">
  <g transform="translate(12, 12) scale(0.47038) translate(0, 0.125)">
    <g opacity="0.85" stroke="#90a8b8" fill-opacity="0.12" stroke-linecap="round" stroke-linejoin="round">
        <path d="M -22 -8 Q -11 -11, 0 -8 Q 11 -5, 22 -8" fill="none" stroke-width="0.9" />
        <path d="M -18 -5 Q -9 -8, 0 -5 Q 9 -2, 18 -5" fill="none" stroke-width="0.5" opacity="0.4" />
        <path d="M 0 10 C -10 10, -18 2, -14 -4 C -10 -8, 0 -2, 0 10 Z" fill="#90a8b8" stroke-width="0.9" />
        <path d="M 0 10 C 10 10, 18 2, 14 -4 C 10 -8, 0 -2, 0 10 Z" fill="#90a8b8" stroke-width="0.9" />
        <path d="M 0 10 C -5 10, -11 4, -7 -3 C -3 -7, 0 -2, 0 10 Z" fill="#a0b8c8" stroke-width="0.6" />
        <path d="M 0 10 C 5 10, 11 4, 7 -3 C 3 -7, 0 -2, 0 10 Z" fill="#a0b8c8" stroke-width="0.6" />
        <circle cx="0" cy="4" r="3.5" fill="#90a8b8" fill-opacity="0.15" stroke-width="0.7" />
        </g>
  </g>
</svg>
