<?xml version="1.0" encoding="UTF-8"?>
<svg xmlns="http://www.w3.org/2000/svg" viewBox="0 0 24 24">
  <g transform="translate(12, 12) scale(0.10307) translate(-118, -36.95)">
    <g fill="none" stroke-linecap="round" stroke-linejoin="round" stroke-width="0.85">
        <path d="M 20 22 L 52 6 L 84 22" stroke="#a09060" stroke-width="0.8" opacity="0.45" />
        <path d="M 70 22 L 110 2 L 150 22" stroke="#a09060" stroke-width="0.9" opacity="0.5" />
        <path d="M 140 22 L 174 8 L 210 22" stroke="#a09060" stroke-width="0.8" opacity="0.45" />
        <ellipse cx="118" cy="36" rx="102" ry="14" fill="#4a7898" fill-opacity="0.35" stroke="#6a98b8" stroke-width="0.9" />
        <path d="M 16 36 Q 16 68, 118 72 Q 220 68, 220 36" stroke="#6a98b8" stroke-width="0.7" opacity="0.5" />
        <circle cx="60" cy="56" r="2" stroke="#8898a8" stroke-width="0.6" opacity="0.55" />
        <circle cx="80" cy="52" r="1.3" stroke="#8898a8" stroke-width="0.5" opacity="0.45" />
        <circle cx="100" cy="58" r="1.6" stroke="#8898a8" stroke-width="0.55" opacity="0.5" />
        <circle cx="140" cy="55" r="2.2" stroke="#8898a8" stroke-width="0.6" opacity="0.55" />
        <circle cx="160" cy="60" r="1.1" stroke="#8898a8" stroke-width="0.5" opacity="0.4" />
        <circle cx="118" cy="62" r="1.4" stroke="#8898a8" stroke-width="0.5" opacity="0.45" />
        <ellipse cx="178" cy="56" rx="3" ry="1.2" stroke="#78a090" stroke-width="0.5" opacity="0.5" />
        <g stroke="#78a090" stroke-width="0.55" opacity="0.5">
          <path d="M 72 58 Q 76 56, 80 58 Q 76 60, 72 58 Z" />
          <line x1="80" y1="58" x2="82" y2="57" />
          <line x1="80" y1="58" x2="82" y2="59" />
        </g>
        <g stroke="#78a090" stroke-width="0.5" opacity="0.4">
          <path d="M 148 54 Q 152 52, 156 54 Q 152 56, 148 54 Z" />
          <line x1="156" y1="54" x2="158" y2="53" />
          <line x1="156" y1="54" x2="158" y2="55" />
        </g>
        <g stroke="#c0a860" stroke-width="0.75" opacity="0.55">
          <circle cx="26" cy="20" r="2.5" />
          <line x1="26" y1="22.5" x2="26" y2="32" />
          <line x1="26" y1="27" x2="22" y2="30" />
          <path d="M 30 24 L 60 44" stroke-dasharray="2 2.5" opacity="0.4" />
        </g>
      </g>
  </g>
</svg>
