<?xml version="1.0" encoding="UTF-8"?>
<svg xmlns="http://www.w3.org/2000/svg" viewBox="0 0 24 24">
  <g transform="translate(12, 12) scale(0.09557) translate(-116, -39)">
    <g fill="none" stroke="#78a890" stroke-linecap="round" stroke-linejoin="round" stroke-width="0.85">
        <rect x="8" y="28" width="46" height="36" rx="2" />
        <path d="M 6 28 L 31 14 L 56 28" stroke-width="1" />
        <rect x="24" y="42" width="10" height="16" rx="1" stroke-width="0.7" opacity="0.7" />
        <rect x="178" y="28" width="46" height="36" rx="2" />
        <path d="M 176 28 L 201 14 L 226 28" stroke-width="1" />
        <rect x="194" y="42" width="10" height="16" rx="1" stroke-width="0.7" opacity="0.7" />
        <g stroke="#80c0a8" stroke-width="1">
          <circle cx="118" cy="32" r="4" />
          <line x1="118" y1="36" x2="118" y2="54" />
          <line x1="118" y1="43" x2="110" y2="48" />
          <line x1="118" y1="43" x2="126" y2="48" />
          <line x1="118" y1="54" x2="114" y2="64" />
          <line x1="118" y1="54" x2="122" y2="64" />
        </g>
        <path d="M 113 34 L 56 38" stroke="#80c0a8" stroke-width="0.5" stroke-dasharray="3 3" opacity="0.4" />
        <path d="M 123 34 L 178 38" stroke="#80c0a8" stroke-width="0.5" stroke-dasharray="3 3" opacity="0.4" />
        <circle cx="64" cy="50" r="2" opacity="0.55" />
        <line x1="64" y1="52" x2="64" y2="58" stroke-width="0.65" opacity="0.55" />
        <path d="M 68 52 L 80 48" stroke-width="0.5" stroke-dasharray="2 2" opacity="0.35" />
        <circle cx="168" cy="48" r="2" opacity="0.55" />
        <line x1="168" y1="50" x2="168" y2="56" stroke-width="0.65" opacity="0.55" />
        <path d="M 164 50 L 152 52" stroke-width="0.5" stroke-dasharray="2 2" opacity="0.35" />
      </g>
  </g>
</svg>
