<?xml version="1.0" encoding="UTF-8"?>
<svg xmlns="http://www.w3.org/2000/svg" viewBox="0 0 24 24">
  <g transform="translate(12, 12) scale(0.1901) translate(-67.05, -39.3)">
    <g fill="none" stroke-linecap="round" stroke-linejoin="round">
        <circle cx="20" cy="12" r="7" stroke="#c8a040" stroke-width="1.2" />
        <line x1="20" y1="19" x2="20" y2="44" stroke="#c8a040" stroke-width="1.2" />
        <line x1="20" y1="28" x2="12" y2="38" stroke="#c8a040" stroke-width="1" />
        <line x1="20" y1="28" x2="30" y2="20" stroke="#c8a040" stroke-width="1" />
        <line x1="30" y1="20" x2="50" y2="5" stroke="#c8a040" stroke-width="1.8" />
        <line x1="20" y1="44" x2="15" y2="62" stroke="#c8a040" stroke-width="1" />
        <line x1="20" y1="44" x2="25" y2="62" stroke="#c8a040" stroke-width="1" />
        <ellipse cx="92" cy="44" rx="30" ry="15" stroke="#a08070" stroke-width="1.2" />
        <circle cx="64" cy="38" r="9" stroke="#a08070" stroke-width="1.2" />
        <path d="M 59 30 L 55 22 M 69 30 L 73 22" stroke="#a08070" stroke-width="1" />
        <line x1="74" y1="59" x2="74" y2="74" stroke="#a08070" stroke-width="1" />
        <line x1="86" y1="59" x2="86" y2="74" stroke="#a08070" stroke-width="1" />
        <line x1="100" y1="59" x2="100" y2="74" stroke="#a08070" stroke-width="1" />
        <line x1="112" y1="57" x2="112" y2="74" stroke="#a08070" stroke-width="1" />
        <path d="M 42 16 Q 54 8, 60 18" stroke="#e86040" stroke-width="0.9" stroke-dasharray="2,2" opacity="0.7" />
      </g>
  </g>
</svg>
