<?xml version="1.0" encoding="UTF-8"?>
<svg xmlns="http://www.w3.org/2000/svg" viewBox="0 0 24 24">
  <g transform="translate(12, 12) scale(0.09639) translate(-119, -49.0384)">
    <g fill="none" stroke="#7ca0b8" stroke-linecap="round" stroke-linejoin="round" stroke-width="0.85">
        <path d="M 10 58 Q 50 48, 80 52 Q 120 56, 160 50 Q 195 44, 228 54" stroke="#5a7898" stroke-width="1.1" opacity="0.55" />
        <path d="M 10 64 Q 50 54, 80 58 Q 120 62, 160 56 Q 195 50, 228 60" stroke="#5a7898" stroke-width="0.6" opacity="0.3" />
        <path d="M 14 40 L 24 30 L 34 40" stroke-width="1" />
        <line x1="16" y1="40" x2="16" y2="52" stroke-width="0.8" />
        <line x1="32" y1="40" x2="32" y2="52" stroke-width="0.8" />
        <line x1="16" y1="52" x2="32" y2="52" stroke-width="0.7" />
        <rect x="21" y="44" width="6" height="8" rx="0.5" stroke-width="0.6" opacity="0.6" />
        <path d="M 104 36 L 114 26 L 124 36" stroke-width="1" />
        <line x1="106" y1="36" x2="106" y2="48" stroke-width="0.8" />
        <line x1="122" y1="36" x2="122" y2="48" stroke-width="0.8" />
        <line x1="106" y1="48" x2="122" y2="48" stroke-width="0.7" />
        <path d="M 192 34 L 202 24 L 212 34" stroke-width="1" />
        <line x1="194" y1="34" x2="194" y2="46" stroke-width="0.8" />
        <line x1="210" y1="34" x2="210" y2="46" stroke-width="0.8" />
        <line x1="194" y1="46" x2="210" y2="46" stroke-width="0.7" />
        <circle cx="68" cy="46" r="2.8" stroke-width="0.9" />
        <line x1="68" y1="48.8" x2="68" y2="58" stroke-width="0.9" />
        <line x1="68" y1="53" x2="63" y2="56" stroke-width="0.75" />
        <line x1="68" y1="53" x2="73" y2="56" stroke-width="0.75" />
        <line x1="68" y1="58" x2="65" y2="64" stroke-width="0.75" />
        <line x1="68" y1="58" x2="71" y2="64" stroke-width="0.75" />
        <path d="M 190 68 Q 140 76, 50 70" stroke-width="0.6" stroke-dasharray="3 3" opacity="0.4" />
        <path d="M 50 70 L 54 67 M 50 70 L 54 73" stroke-width="0.6" opacity="0.4" />
      </g>
  </g>
</svg>
