<?xml version="1.0" encoding="UTF-8"?>
<svg xmlns="http://www.w3.org/2000/svg" viewBox="0 0 24 24">
  <g fill="none" stroke="#c8a040" stroke-width="1.5" stroke-linecap="round" stroke-linejoin="round">
    <path d="M 5 21 L 19 21" />

    <path d="M 12 19 L 12 21" />

    <path d="M 12 19 C 8.5 13 9 5 12 2 C 15 5 15.5 13 12 19 Z" />

    <path d="M 12 19 C 7 17 3 12 3 7 C 5 10 8 13.5 10.5 14.8" />

    <path d="M 12 19 C 17 17 21 12 21 7 C 19 10 16 13.5 13.5 14.8" />

    <path d="M 12 19 C 7 20 2 17 1 13 C 3 14 6.5 16 9.8 17.5" />

    <path d="M 12 19 C 17 20 22 17 23 13 C 21 14 17.5 16 14.2 17.5" />
  </g>
</svg>
