<svg xmlns="http://www.w3.org/2000/svg" viewBox="0 0 920 680" width="920" height="680">
  <defs>
    <linearGradient id="bg" x1="0" y1="0" x2="0" y2="1">
      <stop offset="0%" stop-color="#0b1528" /><stop offset="50%" stop-color="#0e1a30" /><stop offset="100%" stop-color="#101e36" />
    </linearGradient>
    <linearGradient id="tierGrad" x1="0" y1="0" x2="1" y2="0">
      <stop offset="0%" stop-color="#c8a040" stop-opacity="0" />
      <stop offset="20%" stop-color="#c8a040" stop-opacity="0.5" />
      <stop offset="80%" stop-color="#c8a040" stop-opacity="0.5" />
      <stop offset="100%" stop-color="#c8a040" stop-opacity="0" />
    </linearGradient>
    <linearGradient id="hindL" x1="0" y1="0" x2="1" y2="1">
      <stop offset="0%" stop-color="#2a1c24" /><stop offset="100%" stop-color="#221820" />
    </linearGradient>
    <linearGradient id="hindR" x1="0" y1="0" x2="1" y2="1">
      <stop offset="0%" stop-color="#1a2828" /><stop offset="100%" stop-color="#162224" />
    </linearGradient>
    <filter id="shadowDrop" x="-10%" y="-10%" width="130%" height="130%">
      <feDropShadow dx="0" dy="2" stdDeviation="4" flood-color="#000" flood-opacity="0.4" />
    </filter>
    <filter id="iconGlow" x="-40%" y="-40%" width="180%" height="180%">
      <feGaussianBlur stdDeviation="2" result="b" />
      <feMerge><feMergeNode in="b" /><feMergeNode in="SourceGraphic" /></feMerge>
    </filter>
  </defs>

  <rect width="920" height="680" fill="url(#bg)" />

  <!-- Solitude bridge text -->
  <text x="460" y="40" text-anchor="middle" fill="#8898b0" opacity="0.6"
    font-family="Georgia,'Times New Roman',serif" font-size="11" font-style="italic">Dwell in a secluded <tspan font-size="10" opacity="0.5">(vivittaṁ)</tspan> lodging</text>

  <!-- Tier label -->
  <line x1="100" y1="40" x2="820" y2="40" stroke="url(#tierGrad)" stroke-width="0.5" />
  <circle cx="100" cy="58" r="10" fill="none" stroke="#c8a040" stroke-width="0.9" opacity="0.7" />
  <text x="100" y="62" text-anchor="middle" fill="#c8a040" font-family="Georgia,'Times New Roman',serif" font-size="12" font-weight="bold">8</text>
  <text x="460" y="60" text-anchor="middle" fill="#c8a040" opacity="0.75"
    font-family="Georgia,'Times New Roman',serif" font-size="12" font-weight="bold"
    letter-spacing="2.5">ABANDONING OF THE FIVE HINDRANCES · pañcannaṁ nīvaraṇānaṁ pahānaṁ</text>

  <!-- Column headers -->
  <text x="240" y="82" text-anchor="middle" fill="#a08090" opacity="0.6"
    font-family="Georgia,'Times New Roman',serif" font-size="10" letter-spacing="1.5">HINDRANCE — SIMILE</text>
  <text x="680" y="82" text-anchor="middle" fill="#60a088" opacity="0.6"
    font-family="Georgia,'Times New Roman',serif" font-size="10" letter-spacing="1.5">FREEDOM — RELIEF</text>

  <!-- Row 1: Craving / Debt / Free from debt -->
  <g transform="translate(0, 92)">
    <rect x="60" y="0" width="385" height="80" rx="8" fill="url(#hindL)" stroke="#a08090" stroke-width="0.8" stroke-opacity="0.35" />
    <rect x="475" y="0" width="385" height="80" rx="8" fill="url(#hindR)" stroke="#60a088" stroke-width="0.8" stroke-opacity="0.35" />
    <!-- Gold divider -->
    <line x1="460" y1="8" x2="460" y2="82" stroke="#c8a040" stroke-width="0.5" opacity="0.2" />
    <!-- Left: Craving as Debt -->
    <text x="80" y="22" fill="#c8d8e8" font-family="Georgia,'Times New Roman',serif" font-size="11" font-weight="bold">With Craving <tspan font-size="10" font-style="italic" font-weight="normal" fill="#a08090" dx="20">abhijjhā</tspan></text>
    <text x="80" y="48" fill="#8898b0" font-family="Georgia,'Times New Roman',serif" font-size="10">Like a <tspan font-weight="bold" fill="#c8a040">debt</tspan> · <tspan font-style="italic" font-size="10">yathā iṇaṁ</tspan></text>
    <text x="430" y="64" text-anchor="end" fill="#a08090" font-family="Georgia,'Times New Roman',serif" font-size="10" font-style="italic">Simile · A person taking a loan to invest</text>
    <!-- Left icon: simile-debt -->
    <g transform="translate(420, 28) scale(2)" opacity="0.5" filter="url(#iconGlow)">
      <g transform="scale(0.58)">
        <g opacity="0.78" stroke="#a08090" fill="none" stroke-linecap="round" stroke-linejoin="round">
          <circle cx="-2" cy="-8" r="3.2" stroke-width="1" />
          <path d="M -2 -4.8 Q -1 -1, -1 4" stroke-width="1" />
          <line x1="-1" y1="4" x2="-5" y2="12" stroke-width="0.95" />
          <line x1="-1" y1="4" x2="3" y2="12" stroke-width="0.95" />
          <path d="M -2 -2 Q -5 -4, -7 -3" stroke-width="0.9" />
          <path d="M -1 -1 Q 3 -3, 5 -4" stroke-width="0.9" />
          <path d="M 1 -8 Q 3 -12, 7 -12 Q 12 -12, 13 -7 Q 13 -2, 9 0 Q 5 1, 3 -2 Q 1 -4, 1 -8 Z" stroke-width="1" />
          <path d="M 5 -12 L 6 -14 L 8 -12" stroke-width="0.7" />
          <circle cx="10" cy="-13" r="1.6" stroke-width="0.7" />
          <circle cx="12.5" cy="-11" r="1.6" stroke-width="0.7" />
          <circle cx="7" cy="-15" r="1.4" stroke-width="0.65" opacity="0.7" />
        </g>
      </g>
    </g>
    <!-- Gold arrow -->
    <path d="M 452 45 L 468 45" fill="none" stroke="#c8a040" stroke-width="0.8" opacity="0.5" />
    <path d="M 465 42 L 468 45 L 465 48" fill="none" stroke="#c8a040" stroke-width="0.8" opacity="0.5" />
    <!-- Right: Free from debt -->
    <text x="495" y="22" fill="#c8d8e8" font-family="Georgia,'Times New Roman',serif" font-size="11" font-weight="bold">Gives up Craving <tspan font-size="10" font-style="italic" font-weight="normal" fill="#60a088" dx="20">abhijjhā pahāya</tspan></text>
    <text x="495" y="48" fill="#8898b0" font-family="Georgia,'Times New Roman',serif" font-size="10">Like <tspan font-weight="bold" fill="#c8a040">repaying debt</tspan></text>
    <text x="846" y="64" text-anchor="end" fill="#60a088" font-family="Georgia,'Times New Roman',serif" font-size="10" font-style="italic">on business success, and still have some profit left over</text>
    <!-- Right icon: simile-debt-free -->
    <g transform="translate(836, 28) scale(2)" opacity="0.5" filter="url(#iconGlow)">
      <g transform="scale(0.6)">
        <g opacity="0.75" stroke="#60a088" fill="none" stroke-linecap="round" stroke-linejoin="round">
          <circle cx="0" cy="-10" r="3.5" stroke-width="1.1" />
          <line x1="0" y1="-6.5" x2="0" y2="4" stroke-width="1.1" />
          <line x1="0" y1="4" x2="-4" y2="12" stroke-width="1" />
          <line x1="0" y1="4" x2="4" y2="12" stroke-width="1" />
          <line x1="0" y1="-2" x2="-6" y2="0" stroke-width="1" />
          <line x1="0" y1="-2" x2="6" y2="-5" stroke-width="1" />
          <path d="M 6 -5 L 8 -7" stroke-width="0.9" />
          <line x1="8" y1="-12" x2="10" y2="-14" stroke="#80c0a0" stroke-width="0.8" opacity="0.7" />
          <line x1="7" y1="-14" x2="11" y2="-12" stroke="#80c0a0" stroke-width="0.8" opacity="0.7" />
          <line x1="12" y1="-10" x2="14" y2="-12" stroke="#80c0a0" stroke-width="0.8" opacity="0.5" />
          <line x1="11" y1="-12" x2="15" y2="-10" stroke="#80c0a0" stroke-width="0.8" opacity="0.5" />
        </g>
      </g>
    </g>
  </g>

  <!-- Row 2: Ill will / Disease / Healthy -->
  <g transform="translate(0, 192)">
    <rect x="60" y="0" width="385" height="80" rx="8" fill="url(#hindL)" stroke="#a08090" stroke-width="0.8" stroke-opacity="0.35" />
    <rect x="475" y="0" width="385" height="80" rx="8" fill="url(#hindR)" stroke="#60a088" stroke-width="0.8" stroke-opacity="0.35" />
    <line x1="460" y1="8" x2="460" y2="80" stroke="#c8a040" stroke-width="0.5" opacity="0.2" />
    <!-- Left: Ill will as Disease -->
    <text x="80" y="22" fill="#c8d8e8" font-family="Georgia,'Times New Roman',serif" font-size="11" font-weight="bold">
      Ill will <tspan font-size="10" font-style="italic" font-weight="normal" fill="#a08090" dx="20">byāpāda</tspan>
    </text>
    <text x="80" y="48" fill="#8898b0" font-family="Georgia,'Times New Roman',serif" font-size="10">
      Like an <tspan font-weight="bold" fill="#c8a040">illness</tspan> · <tspan font-style="italic" font-size="10">yathā rogaṁ</tspan>
    </text>
    <text x="430" y="64" text-anchor="end" fill="#a08090" font-family="Georgia,'Times New Roman',serif" font-size="10" font-style="italic">Simile · A person who is sick, in pain, and seriously ill</text>
    <!-- Left icon: simile-disease -->
    <g transform="translate(420, 28) scale(2)" opacity="0.5" filter="url(#iconGlow)">
      <g transform="scale(0.6)">
        <g opacity="0.75" stroke="#a08090" fill="none" stroke-linecap="round" stroke-linejoin="round">
          <circle cx="0" cy="-9" r="3.5" stroke-width="1.1" />
          <path d="M 0 -5.5 Q 3 0, 2 6" stroke-width="1.1" />
          <line x1="2" y1="6" x2="-2" y2="13" stroke-width="1" />
          <line x1="2" y1="6" x2="6" y2="13" stroke-width="1" />
          <path d="M 0 -1 Q -5 2, -6 0" stroke-width="1" />
          <path d="M 1 -1 Q 6 -3, 5 1" stroke-width="1" />
          <path d="M 6 -8 Q 9 -10, 7 -6" stroke-width="0.7" opacity="0.5" />
          <path d="M 7 -4 Q 10 -5, 9 -2" stroke-width="0.7" opacity="0.5" />
          <path d="M 8 -1 Q 11 -2, 10 1" stroke-width="0.7" opacity="0.5" />
        </g>
      </g>
    </g>
    <!-- Arrow -->
    <path d="M 452 45 L 468 45" fill="none" stroke="#c8a040" stroke-width="0.8" opacity="0.5" />
    <path d="M 465 42 L 468 45 L 465 48" fill="none" stroke="#c8a040" stroke-width="0.8" opacity="0.5" />
    <!-- Right: Healthy -->
    <text x="495" y="22" fill="#c8d8e8" font-family="Georgia,'Times New Roman',serif" font-size="11" font-weight="bold">Gives up Ill will <tspan font-size="10" font-style="italic" font-weight="normal" fill="#60a088" dx="20">byāpāda pahāya</tspan></text>
    <text x="495" y="48" fill="#8898b0" font-family="Georgia,'Times New Roman',serif" font-size="10">
      Like <tspan font-weight="bold" fill="#c8a040">recovering from that illness</tspan>
    </text>
    <text x="846" y="64" text-anchor="end" fill="#60a088" font-family="Georgia,'Times New Roman',serif" font-size="10" font-style="italic">
      and their food nourishes them, and they regain strength
    </text>
    <!-- Right icon: simile-healthy -->
    <g transform="translate(826, 28) scale(2)" opacity="0.5" filter="url(#iconGlow)">
      <g transform="scale(0.62)">
        <g opacity="0.85" fill="none" stroke-linecap="round" stroke-linejoin="round">
          <g stroke="#a08090" stroke-width="0.55" stroke-dasharray="1.2 1.8" opacity="0.35">
            <circle cx="-14" cy="-2" r="2.5" />
            <path d="M -14 0.5 Q -12 4, -13 8" />
          </g>
          <g stroke="#60a088" stroke-width="1.05">
            <circle cx="2" cy="-8" r="3.5" />
            <line x1="2" y1="-4.5" x2="2" y2="5" />
            <line x1="2" y1="0" x2="-5" y2="-2" />
            <line x1="2" y1="0" x2="7" y2="-2" />
            <line x1="2" y1="5" x2="-3" y2="12" />
            <line x1="2" y1="5" x2="7" y2="12" />
            <path d="M -2 -14 L -2 -11 M 6 -14 L 6 -11 M 2 -16 L 2 -13" stroke="#80c0a0" stroke-width="0.75" opacity="0.7" />
          </g>
          <g stroke="#80c0a0" stroke-width="0.85" opacity="0.75">
            <path d="M 10 6 Q 10 11, 14 12 Q 18 11, 18 6 Z" />
            <line x1="10" y1="6" x2="18" y2="6" />
            <line x1="12" y1="9" x2="16" y2="9" stroke-width="0.6" />
          </g>
        </g>
      </g>
    </g>
  </g>

  <!-- Row 3: Dullness + drowsiness / Prison / Released -->
  <g transform="translate(0, 292)">
    <rect x="60" y="0" width="385" height="80" rx="8" fill="url(#hindL)" stroke="#a08090" stroke-width="0.8" stroke-opacity="0.35" />
    <rect x="475" y="0" width="385" height="80" rx="8" fill="url(#hindR)" stroke="#60a088" stroke-width="0.8" stroke-opacity="0.35" />
    <line x1="460" y1="8" x2="460" y2="80" stroke="#c8a040" stroke-width="0.5" opacity="0.2" />
    <!-- Left: Dullness as Prison -->
    <text x="80" y="22" fill="#c8d8e8" font-family="Georgia,'Times New Roman',serif" font-size="11" font-weight="bold">
      Dullness and Drowsiness <tspan font-size="10" font-style="italic" font-weight="normal" fill="#a08090" dx="20">thīnamiddha</tspan>
    </text>
    <text x="80" y="48" fill="#8898b0" font-family="Georgia,'Times New Roman',serif" font-size="10">
      Like being <tspan font-weight="bold" fill="#c8a040">imprisoned</tspan> · <tspan font-style="italic" font-size="10">yathā bandhanāgāraṁ</tspan>
    </text>
    <text x="430" y="64" text-anchor="end" fill="#a08090" font-family="Georgia,'Times New Roman',serif" font-size="10" font-style="italic">Simile · A person who is imprisoned</text>
    <!-- Left icon: simile-prison -->
    <g transform="translate(420, 28) scale(2)" opacity="0.5" filter="url(#iconGlow)">
      <g transform="scale(0.6)">
        <g opacity="0.75" stroke="#a08090" fill="none" stroke-linecap="round" stroke-linejoin="round">
          <line x1="-8" y1="-14" x2="-8" y2="14" stroke-width="1.2" />
          <line x1="-3" y1="-14" x2="-3" y2="14" stroke-width="1.2" />
          <line x1="2" y1="-14" x2="2" y2="14" stroke-width="1.2" />
          <line x1="7" y1="-14" x2="7" y2="14" stroke-width="1.2" />
          <line x1="-10" y1="-8" x2="9" y2="-8" stroke-width="0.8" />
          <line x1="-10" y1="4" x2="9" y2="4" stroke-width="0.8" />
          <circle cx="-0.5" cy="-3" r="2.5" stroke-width="0.9" opacity="0.6" />
          <line x1="-0.5" y1="-0.5" x2="-0.5" y2="4" stroke-width="0.9" opacity="0.6" />
        </g>
      </g>
    </g>
    <!-- Arrow -->
    <path d="M 452 45 L 468 45" fill="none" stroke="#c8a040" stroke-width="0.8" opacity="0.5" />
    <path d="M 465 42 L 468 45 L 465 48" fill="none" stroke="#c8a040" stroke-width="0.8" opacity="0.5" />
    <!-- Right: Released -->
    <text x="495" y="22" fill="#c8d8e8" font-family="Georgia,'Times New Roman',serif" font-size="11" font-weight="bold">Gives up Dullness and Drowsiness <tspan font-size="10" font-style="italic" font-weight="normal" fill="#60a088" dx="10">thīnamiddha pahāya</tspan></text>
    <text x="495" y="48" fill="#8898b0" font-family="Georgia,'Times New Roman',serif" font-size="10">
      Like being <tspan font-weight="bold" fill="#c8a040">released from prison</tspan>
    </text>
    <text x="846" y="64" text-anchor="end" fill="#60a088" font-family="Georgia,'Times New Roman',serif" font-size="10" font-style="italic">
      safely and securely, without any loss to their belongings
    </text>
    <!-- Right icon: simile-released -->
    <g transform="translate(836, 28) scale(2)" opacity="0.5" filter="url(#iconGlow)">
      <g transform="scale(0.58)">
        <g fill="none" stroke-linecap="round" stroke-linejoin="round">
          <path d="M -10 -12 L -10 12 L 2 12 L 2 -12 Z" stroke="#60a088" stroke-width="1.05" />
          <path d="M 2 -12 L 2 12 Q 12 0, 2 -12" stroke="#80c0a0" stroke-width="0.95" fill="none" opacity="0.5" />
          <line x1="2" y1="-12" x2="10" y2="-8" stroke="#80c0a0" stroke-width="0.85" />
          <line x1="2" y1="12" x2="10" y2="8" stroke="#80c0a0" stroke-width="0.85" />
          <g stroke="#60a088" stroke-width="1" opacity="0.9">
            <circle cx="8" cy="-2" r="2.8" />
            <line x1="8" y1="0.8" x2="8" y2="8" />
            <line x1="8" y1="4" x2="4" y2="6" />
            <line x1="8" y1="4" x2="14" y2="5" />
            <line x1="8" y1="8" x2="5" y2="13" />
            <line x1="8" y1="8" x2="11" y2="13" />
          </g>
        </g>
      </g>
    </g>
  </g>

  <!-- Row 4: Restlessness + worry / Slavery / Freedom -->
  <g transform="translate(0, 392)">
    <rect x="60" y="0" width="385" height="80" rx="8" fill="url(#hindL)" stroke="#a08090" stroke-width="0.8" stroke-opacity="0.35" />
    <rect x="475" y="0" width="385" height="80" rx="8" fill="url(#hindR)" stroke="#60a088" stroke-width="0.8" stroke-opacity="0.35" />
    <line x1="460" y1="8" x2="460" y2="80" stroke="#c8a040" stroke-width="0.5" opacity="0.2" />
    <!-- Left: Restlessness as Slavery -->
    <text x="80" y="22" fill="#c8d8e8" font-family="Georgia,'Times New Roman',serif" font-size="11" font-weight="bold">
      Restlessness and Worry <tspan font-size="10" font-style="italic" font-weight="normal" fill="#a08090" dx="20">uddhaccakukkucca</tspan>
    </text>
    <text x="80" y="48" fill="#8898b0" font-family="Georgia,'Times New Roman',serif" font-size="10">
      Like <tspan font-weight="bold" fill="#c8a040">slavery</tspan> · <tspan font-style="italic" font-size="10">yathā dāsabyaṁ</tspan>
    </text>
    <text x="430" y="64" text-anchor="end" fill="#a08090" font-family="Georgia,'Times New Roman',serif" font-size="10" font-style="italic">Simile · A person who is a slave, not free, dependent on others</text>
    <!-- Left icon: simile-slavery -->
    <g transform="translate(420, 28) scale(2)" opacity="0.5" filter="url(#iconGlow)">
      <g transform="scale(0.6)">
        <g opacity="0.75" stroke="#a08090" fill="none" stroke-linecap="round" stroke-linejoin="round">
          <circle cx="0" cy="-9" r="3.5" stroke-width="1.1" />
          <path d="M 0 -5.5 Q 2 -2, 1 4" stroke-width="1.1" />
          <line x1="1" y1="4" x2="-3" y2="12" stroke-width="1" />
          <line x1="1" y1="4" x2="5" y2="12" stroke-width="1" />
          <line x1="0" y1="-1" x2="-6" y2="2" stroke-width="1" />
          <line x1="0" y1="-1" x2="6" y2="2" stroke-width="1" />
          <ellipse cx="-8" cy="2" rx="3" ry="1.8" stroke-width="1" />
          <path d="M -5 2 L -6 2" stroke-width="1.2" />
          <ellipse cx="8" cy="2" rx="3" ry="1.8" stroke-width="1" />
          <path d="M 5 2 L 6 2" stroke-width="1.2" />
        </g>
      </g>
    </g>
    <!-- Arrow -->
    <path d="M 452 45 L 468 45" fill="none" stroke="#c8a040" stroke-width="0.8" opacity="0.5" />
    <path d="M 465 42 L 468 45 L 465 48" fill="none" stroke="#c8a040" stroke-width="0.8" opacity="0.5" />
    <!-- Right: Freedom -->
    <text x="495" y="22" fill="#c8d8e8" font-family="Georgia,'Times New Roman',serif" font-size="11" font-weight="bold">Gives up Restlessness and Worry <tspan font-size="10" font-style="italic" font-weight="normal" fill="#60a088" dx="10">uddhaccakukkucca pahāya</tspan></text>
    <text x="495" y="48" fill="#8898b0" font-family="Georgia,'Times New Roman',serif" font-size="10">
      Like being <tspan font-weight="bold" fill="#c8a040">freed from slavery</tspan>
    </text>
    <text x="846" y="64" text-anchor="end" fill="#60a088" font-family="Georgia,'Times New Roman',serif" font-size="10" font-style="italic">
      becoming independent, and free to go where they want
    </text>
    <!-- Right icon: simile-freedom -->
    <g transform="translate(836, 28) scale(2)" opacity="0.5" filter="url(#iconGlow)">
      <g transform="scale(0.58)">
        <g opacity="0.75" stroke="#60a088" fill="none" stroke-linecap="round" stroke-linejoin="round">
          <circle cx="0" cy="-10" r="3.5" stroke-width="1.1" />
          <line x1="0" y1="-6.5" x2="0" y2="4" stroke-width="1.1" />
          <line x1="0" y1="4" x2="-5" y2="12" stroke-width="1" />
          <line x1="0" y1="4" x2="5" y2="12" stroke-width="1" />
          <line x1="0" y1="-2" x2="-7" y2="-5" stroke-width="1" />
          <line x1="0" y1="-2" x2="7" y2="-5" stroke-width="1" />
          <path d="M -6 0 Q -9 -2, -7 1" stroke="#80c0a0" stroke-width="0.7" opacity="0.5" />
          <path d="M -8 3 Q -11 1, -9 4" stroke="#80c0a0" stroke-width="0.7" opacity="0.5" />
          <path d="M 6 0 Q 9 -2, 7 1" stroke="#80c0a0" stroke-width="0.7" opacity="0.5" />
          <path d="M 8 3 Q 11 1, 9 4" stroke="#80c0a0" stroke-width="0.7" opacity="0.5" />
        </g>
      </g>
    </g>
  </g>

  <!-- Row 5: Doubt / Dangerous path / Safe arrival -->
  <g transform="translate(0, 492)">
    <rect x="60" y="0" width="385" height="80" rx="8" fill="url(#hindL)" stroke="#a08090" stroke-width="0.8" stroke-opacity="0.35" />
    <rect x="475" y="0" width="385" height="80" rx="8" fill="url(#hindR)" stroke="#60a088" stroke-width="0.8" stroke-opacity="0.35" />
    <line x1="460" y1="8" x2="460" y2="80" stroke="#c8a040" stroke-width="0.5" opacity="0.2" />
    <!-- Left: Doubt as Dangerous path -->
    <text x="80" y="22" fill="#c8d8e8" font-family="Georgia,'Times New Roman',serif" font-size="11" font-weight="bold">
      Doubt <tspan font-size="10" font-style="italic" font-weight="normal" fill="#a08090" dx="20">vicikicchā</tspan>
    </text>
    <text x="80" y="48" fill="#8898b0" font-family="Georgia,'Times New Roman',serif" font-size="10">
      Like a <tspan font-weight="bold" fill="#c8a040">dangerous path</tspan> · <tspan font-style="italic" font-size="10">yathā kantāraddhānamaggaṁ</tspan>
    </text>
    <text x="430" y="64" text-anchor="end" fill="#a08090" font-family="Georgia,'Times New Roman',serif" font-size="10" font-style="italic">Simile · A person with wealth traveling through a dangerous path</text>
    <!-- Left icon: simile-dangerous-path -->
    <g transform="translate(420, 28) scale(2)" opacity="0.5" filter="url(#iconGlow)">
      <g transform="scale(0.58)">
        <g opacity="0.8" fill="none" stroke-linecap="round" stroke-linejoin="round">
          <!-- Diagonal path runs top-right to bottom-left -->
          <path d="M 10 -12 C 6 -8, 0 -2, -4 2 C -8 6, -12 10, -14 14" stroke="#a08090" stroke-width="1.3" />
          <path d="M 14 -10 C 10 -6, 4 0, 0 4 C -4 8, -8 12, -10 16" stroke="#a08090" stroke-width="0.9" opacity="0.5" />
          <!-- Thorn hazards along path edges -->
          <path d="M 6 -6 L 4 -9 L 8 -7.5 Z" stroke="#a06070" stroke-width="0.7" fill="#a06070" fill-opacity="0.18" />
          <path d="M 0 0 L -2.5 -3 L 2 -1.5 Z" stroke="#a06070" stroke-width="0.7" fill="#a06070" fill-opacity="0.18" />
          <path d="M -6 8 L -8.5 5 L -4 6.5 Z" stroke="#a06070" stroke-width="0.7" fill="#a06070" fill-opacity="0.18" />
          <path d="M -10 12 L -13 10.5 L -9.5 10 Z" stroke="#a06070" stroke-width="0.6" fill="#a06070" fill-opacity="0.12" />
          <!-- Traveler clearly to the left, off the path -->
          <g stroke="#a08090" stroke-width="0.9" transform="translate(-16, -4)">
            <circle cx="0" cy="0" r="2.2" />
            <path d="M 0 2.2 Q 1 5, 0.5 8" stroke-width="0.95" />
            <line x1="0.5" y1="5" x2="-3.5" y2="6.5" />
            <line x1="0.5" y1="5" x2="4.5" y2="6.5" />
            <line x1="0.5" y1="8" x2="-2" y2="10" stroke-width="0.85" />
            <line x1="0.5" y1="8" x2="3" y2="10" stroke-width="0.85" />
            <!-- Small bundle on back -->
            <path d="M -3.5 -2.5 Q -4 1, -2 2.5 Q 0 3, 1 0.5" stroke-width="0.75" opacity="0.75" />
          </g>
        </g>
      </g>
    </g>
    <!-- Arrow -->
    <path d="M 452 45 L 468 45" fill="none" stroke="#c8a040" stroke-width="0.8" opacity="0.5" />
    <path d="M 465 42 L 468 45 L 465 48" fill="none" stroke="#c8a040" stroke-width="0.8" opacity="0.5" />
    <!-- Right: Safe arrival -->
    <text x="495" y="22" fill="#c8d8e8" font-family="Georgia,'Times New Roman',serif" font-size="11" font-weight="bold">Gives up Doubt <tspan font-size="10" font-style="italic" font-weight="normal" fill="#60a088" dx="20">vicikicchā pahāya</tspan></text>
    <text x="495" y="48" fill="#8898b0" font-family="Georgia,'Times New Roman',serif" font-size="10">
      Like reaching a <tspan font-weight="bold" fill="#c8a040">place of safety</tspan>
    </text>
    <text x="846" y="64" text-anchor="end" fill="#60a088" font-family="Georgia,'Times New Roman',serif" font-size="10" font-style="italic">
      securely, and without any loss to their belongings
    </text>
    <!-- Right icon: simile-safe-arrival -->
    <g transform="translate(836, 28) scale(2)" opacity="0.5" filter="url(#iconGlow)">
      <g transform="scale(0.58)">
        <g fill="none" stroke-linecap="round" stroke-linejoin="round">
          <path d="M -14 8 Q 0 6, 14 8" stroke="#60a088" stroke-width="0.75" opacity="0.45" />
          <path d="M -12 -2 Q -4 -6, 4 -5 Q 10 -4, 14 -6" stroke="#80c0a0" stroke-width="0.65" opacity="0.4" />
          <path d="M -10 -10 Q 0 -12, 10 -10" stroke="#78a890" stroke-width="0.5" opacity="0.25" />
          <g stroke="#60a088" stroke-width="1">
            <circle cx="0" cy="-2" r="3" />
            <line x1="0" y1="1" x2="0" y2="9" />
            <line x1="0" y1="4" x2="-6" y2="2" />
            <line x1="0" y1="4" x2="6" y2="2" />
            <line x1="0" y1="9" x2="-4" y2="14" />
            <line x1="0" y1="9" x2="4" y2="14" />
          </g>
          <rect x="5" y="10" width="5" height="3" rx="0.5" stroke="#80c0a0" stroke-width="0.65" opacity="0.55" />
        </g>
      </g>
    </g>
  </g>

  <!-- Summary bridge -->
  <rect x="100" y="600" width="720" height="68" rx="8" fill="none" stroke="#c8a040" stroke-width="0.6" stroke-opacity="0.25" />
  <text x="460" y="620" text-anchor="middle" fill="#8898b0"
    font-family="Georgia,'Times New Roman',serif" font-size="11" font-style="italic">“He sees these five hindrances as debt, disease, prison, slavery, a dangerous path.”</text>
  <text x="460" y="634" text-anchor="middle" fill="#708878" opacity="0.8"
    font-family="Georgia,'Times New Roman',serif" font-size="10" font-style="italic">yathā iṇaṁ · yathā rogaṁ · yathā bandhanāgāraṁ · yathā dāsabyaṁ · yathā kantāraddhānamaggaṁ</text>
  <text x="460" y="656" text-anchor="middle" fill="#90c0b0"
    font-family="Georgia,'Times New Roman',serif" font-size="11" font-style="italic">When abandoned: free from debt, healthy, released, free, in a place of safety</text>
</svg>
