<?xml version="1.0" encoding="UTF-8"?>
<svg xmlns="http://www.w3.org/2000/svg" viewBox="0 0 920 2660" role="img" aria-labelledby="title desc" font-family="Georgia,'Times New Roman',serif">
  <title id="title">MN 95 Caṅkī Sutta — With Caṅkī</title>
  <desc id="desc">A discourse visualization of MN 95: the brahmin dogma resting on a row of blind men, the five grounds that turn out two ways, the three movements of truth (preservation, awakening, final arrival), the three gates of examining a teacher, and the gradual cascade from faith to striving culminating in the final arrival at the truth.</desc>

  <defs>
    <linearGradient id="bg" x1="0" y1="0" x2="0" y2="1">
      <stop offset="0%" stop-color="#0b1528" />
      <stop offset="38%" stop-color="#0e1a30" />
      <stop offset="100%" stop-color="#101e36" />
    </linearGradient>
    <linearGradient id="tierGrad" x1="0" y1="0" x2="1" y2="0">
      <stop offset="0%" stop-color="#c8a040" stop-opacity="0" />
      <stop offset="18%" stop-color="#c8a040" stop-opacity="0.45" />
      <stop offset="50%" stop-color="#ffd980" stop-opacity="0.68" />
      <stop offset="82%" stop-color="#c8a040" stop-opacity="0.45" />
      <stop offset="100%" stop-color="#c8a040" stop-opacity="0" />
    </linearGradient>
    <linearGradient id="cardNeutral" x1="0" y1="0" x2="1" y2="1">
      <stop offset="0%" stop-color="#182234" />
      <stop offset="100%" stop-color="#121a2a" />
    </linearGradient>
    <linearGradient id="cardBlind" x1="0" y1="0" x2="1" y2="1">
      <stop offset="0%" stop-color="#231622" />
      <stop offset="100%" stop-color="#16111a" />
    </linearGradient>
    <linearGradient id="cardFalse" x1="0" y1="0" x2="1" y2="1">
      <stop offset="0%" stop-color="#251624" />
      <stop offset="100%" stop-color="#17111c" />
    </linearGradient>
    <linearGradient id="cardTrue" x1="0" y1="0" x2="1" y2="1">
      <stop offset="0%" stop-color="#142b34" />
      <stop offset="100%" stop-color="#101d2a" />
    </linearGradient>
    <linearGradient id="cardExamine" x1="0" y1="0" x2="1" y2="1">
      <stop offset="0%" stop-color="#1b2838" />
      <stop offset="100%" stop-color="#121e2c" />
    </linearGradient>
    <!-- graduated cascade fills: steel blue to olive to gold -->
    <linearGradient id="stg1"  x1="0" y1="0" x2="1" y2="1"><stop offset="0%" stop-color="#1c2836" /><stop offset="100%" stop-color="#1a2430" /></linearGradient>
    <linearGradient id="stg2"  x1="0" y1="0" x2="1" y2="1"><stop offset="0%" stop-color="#1e2a34" /><stop offset="100%" stop-color="#1c2630" /></linearGradient>
    <linearGradient id="stg3"  x1="0" y1="0" x2="1" y2="1"><stop offset="0%" stop-color="#202c32" /><stop offset="100%" stop-color="#1e282e" /></linearGradient>
    <linearGradient id="stg4"  x1="0" y1="0" x2="1" y2="1"><stop offset="0%" stop-color="#222e30" /><stop offset="100%" stop-color="#202a2c" /></linearGradient>
    <linearGradient id="stg5"  x1="0" y1="0" x2="1" y2="1"><stop offset="0%" stop-color="#26302e" /><stop offset="100%" stop-color="#242c2a" /></linearGradient>
    <linearGradient id="stg6"  x1="0" y1="0" x2="1" y2="1"><stop offset="0%" stop-color="#29302b" /><stop offset="100%" stop-color="#272c27" /></linearGradient>
    <linearGradient id="stg7"  x1="0" y1="0" x2="1" y2="1"><stop offset="0%" stop-color="#2c3029" /><stop offset="100%" stop-color="#2a2c25" /></linearGradient>
    <linearGradient id="stg8"  x1="0" y1="0" x2="1" y2="1"><stop offset="0%" stop-color="#2f3027" /><stop offset="100%" stop-color="#2d2c23" /></linearGradient>
    <linearGradient id="stg9"  x1="0" y1="0" x2="1" y2="1"><stop offset="0%" stop-color="#323025" /><stop offset="100%" stop-color="#302c21" /></linearGradient>
    <linearGradient id="stg10" x1="0" y1="0" x2="1" y2="1"><stop offset="0%" stop-color="#363023" /><stop offset="100%" stop-color="#342c1f" /></linearGradient>
    <linearGradient id="stg11" x1="0" y1="0" x2="1" y2="1"><stop offset="0%" stop-color="#3a3120" /><stop offset="100%" stop-color="#382c1d" /></linearGradient>
    <linearGradient id="stg12" x1="0" y1="0" x2="1" y2="1"><stop offset="0%" stop-color="#40341c" /><stop offset="100%" stop-color="#3c2f19" /></linearGradient>
    <radialGradient id="libGlow" cx="50%" cy="50%" r="50%">
      <stop offset="0%" stop-color="#ffd700" stop-opacity="0.2" />
      <stop offset="55%" stop-color="#c8a040" stop-opacity="0.07" />
      <stop offset="100%" stop-color="#c8a040" stop-opacity="0" />
    </radialGradient>
    <filter id="glow1" x="-30%" y="-30%" width="160%" height="160%">
      <feGaussianBlur stdDeviation="3" result="b" />
      <feMerge><feMergeNode in="b" /><feMergeNode in="SourceGraphic" /></feMerge>
    </filter>
    <filter id="glow2" x="-50%" y="-50%" width="200%" height="200%">
      <feGaussianBlur stdDeviation="6" result="b" />
      <feMerge><feMergeNode in="b" /><feMergeNode in="SourceGraphic" /></feMerge>
    </filter>
    <filter id="iconGlow" x="-40%" y="-40%" width="180%" height="180%">
      <feGaussianBlur stdDeviation="2" result="b" />
      <feMerge><feMergeNode in="b" /><feMergeNode in="SourceGraphic" /></feMerge>
    </filter>
    <filter id="shadowDrop" x="-10%" y="-10%" width="130%" height="130%">
      <feDropShadow dx="0" dy="2" stdDeviation="4" flood-color="#000" flood-opacity="0.4" />
    </filter>
  </defs>

  <rect width="920" height="2660" fill="url(#bg)" />
  <ellipse cx="460" cy="300" rx="320" ry="150" fill="#a06070" opacity="0.03" />
  <ellipse cx="460" cy="1400" rx="340" ry="170" fill="#60a088" opacity="0.028" />
  <ellipse cx="460" cy="2380" rx="340" ry="235" fill="#ffd700" opacity="0.028" />

  <!-- ===================== PHASE 1 - HEADER ===================== -->
  <g id="header" transform="translate(0, 0)">
    <text x="460" y="46" text-anchor="middle" fill="#c8a040" font-size="22" font-weight="bold" letter-spacing="3">MN 95 — CAṄKĪ SUTTA</text>
    <text x="470" y="70" text-anchor="middle" fill="#90a0b8" font-size="15" font-style="italic">With Caṅkī</text>
    <line x1="270" y1="86" x2="650" y2="86" stroke="#a09070" stroke-opacity="0.32" stroke-width="0.6" />
    <text x="460" y="111" text-anchor="middle" fill="#b0a0a8" font-size="12" font-style="italic">“This alone is true, anything else is wrong” — but on what ground?</text>
    <text x="460" y="132" text-anchor="middle" fill="#887888" font-size="11" font-style="italic" opacity="0.85">idameva saccaṁ, moghamaññaṁ</text>
  </g>

  <!-- ===================== PHASE 2 - THE SETTING ===================== -->
  <g id="setting" transform="translate(0, 150)">
    <line x1="100" y1="18" x2="820" y2="18" stroke="url(#tierGrad)" stroke-width="0.8" />
    <text x="460" y="25" text-anchor="middle" fill="#c8a040" font-size="12" font-weight="bold" letter-spacing="2">THE SETTING · OPĀSĀDA</text>
    <text x="460" y="51" text-anchor="middle" fill="#708090" font-size="11" font-style="italic">The brahmins debate who should visit whom; all go to the Buddha, and a young brahmin puts the question</text>

    <g id="setting-card" transform="translate(70, 66)">
      <rect x="0" y="0" width="780" height="116" rx="8" fill="url(#cardNeutral)" stroke="#6888a0" stroke-opacity="0.4" stroke-width="0.9" filter="url(#shadowDrop)" />
      <text x="390" y="34" text-anchor="middle" fill="#c8d8e8" font-size="12.5" font-weight="bold">Kāpaṭhika Bhāradvāja — sixteen, master of the three Vedas — asks:</text>
      <text x="390" y="56" text-anchor="middle" fill="#a0b0c8" font-size="11.4">“The ancient hymns of the brahmins, handed down through oral tradition, preserved in scripture —</text>
      <text x="390" y="74" text-anchor="middle" fill="#a0b0c8" font-size="11.4">on them the brahmins conclude: ‘This alone is true, anything else is wrong.’ What does sir Gotama say?”</text>
      <text x="390" y="96" text-anchor="middle" fill="#708878" font-size="10.5" font-style="italic">itihitihaparamparāya piṭakasampadāya … ekaṁsena niṭṭhaṁ gacchanti: ‘idameva saccaṁ, moghamaññaṁ’</text>
    </g>
  </g>

  <!-- ===================== PHASE 3 - THE ROW OF BLIND MEN ===================== -->
  <g id="blind-men" transform="translate(0, 350)">
    <line x1="100" y1="18" x2="820" y2="18" stroke="url(#tierGrad)" stroke-width="0.8" />
    <text x="460" y="48" text-anchor="middle" fill="#c8a040" font-size="12" font-weight="bold" letter-spacing="2">THE ROW OF BLIND MEN · ANDHAVEṆŪPAMĀ</text>

    <g id="blind-card" transform="translate(70, 66)">
      <rect x="0" y="0" width="780" height="222" rx="8" fill="url(#cardBlind)" stroke="#a06070" stroke-opacity="0.42" stroke-width="0.9" filter="url(#shadowDrop)" />

      <!-- Hero illustration: five linked figures, none seeing -->
      <g id="blind-row" transform="translate(170, 44)" stroke-linecap="round" stroke-linejoin="round">
        <!-- guiding tether through the whole row -->
        <path d="M 30 18 L 430 18" fill="none" stroke="#a06070" stroke-opacity="0.3" stroke-width="0.7" stroke-dasharray="2 3" />
        <!-- connecting hands: each rests on the shoulder ahead -->
        <path d="M 46 12 Q 80 4, 116 12" fill="none" stroke="#9a6070" stroke-width="0.8" opacity="0.6" />
        <path d="M 146 12 Q 180 4, 216 12" fill="none" stroke="#9a6070" stroke-width="0.8" opacity="0.6" />
        <path d="M 246 12 Q 280 4, 316 12" fill="none" stroke="#9a6070" stroke-width="0.8" opacity="0.6" />
        <path d="M 346 12 Q 380 4, 416 12" fill="none" stroke="#9a6070" stroke-width="0.8" opacity="0.6" />

        <g transform="translate(30, 0)">
          <circle cx="0" cy="0" r="6.5" fill="none" stroke="#b07880" stroke-width="1" />
          <line x1="-3" y1="-1" x2="3" y2="-1" stroke="#b07880" stroke-width="0.8" opacity="0.85" />
          <line x1="0" y1="6.5" x2="0" y2="26" stroke="#b07880" stroke-width="1" />
          <line x1="0" y1="26" x2="-7" y2="38" stroke="#b07880" stroke-width="1" />
          <line x1="0" y1="26" x2="7" y2="38" stroke="#b07880" stroke-width="1" />
          <line x1="0" y1="13" x2="9" y2="9" stroke="#b07880" stroke-width="0.8" />
        </g>
        <g transform="translate(130, 0)">
          <circle cx="0" cy="0" r="6.5" fill="none" stroke="#b07880" stroke-width="1" />
          <line x1="-3" y1="-1" x2="3" y2="-1" stroke="#b07880" stroke-width="0.8" opacity="0.85" />
          <line x1="0" y1="6.5" x2="0" y2="26" stroke="#b07880" stroke-width="1" />
          <line x1="0" y1="26" x2="-7" y2="38" stroke="#b07880" stroke-width="1" />
          <line x1="0" y1="26" x2="7" y2="38" stroke="#b07880" stroke-width="1" />
          <line x1="0" y1="13" x2="9" y2="9" stroke="#b07880" stroke-width="0.8" />
        </g>
        <g transform="translate(230, 0)">
          <circle cx="0" cy="0" r="6.5" fill="none" stroke="#b07880" stroke-width="1" />
          <line x1="-3" y1="-1" x2="3" y2="-1" stroke="#b07880" stroke-width="0.8" opacity="0.85" />
          <line x1="0" y1="6.5" x2="0" y2="26" stroke="#b07880" stroke-width="1" />
          <line x1="0" y1="26" x2="-7" y2="38" stroke="#b07880" stroke-width="1" />
          <line x1="0" y1="26" x2="7" y2="38" stroke="#b07880" stroke-width="1" />
          <line x1="0" y1="13" x2="9" y2="9" stroke="#b07880" stroke-width="0.8" />
        </g>
        <g transform="translate(330, 0)">
          <circle cx="0" cy="0" r="6.5" fill="none" stroke="#b07880" stroke-width="1" />
          <line x1="-3" y1="-1" x2="3" y2="-1" stroke="#b07880" stroke-width="0.8" opacity="0.85" />
          <line x1="0" y1="6.5" x2="0" y2="26" stroke="#b07880" stroke-width="1" />
          <line x1="0" y1="26" x2="-7" y2="38" stroke="#b07880" stroke-width="1" />
          <line x1="0" y1="26" x2="7" y2="38" stroke="#b07880" stroke-width="1" />
          <line x1="0" y1="13" x2="9" y2="9" stroke="#b07880" stroke-width="0.8" />
        </g>
        <g transform="translate(430, 0)">
          <circle cx="0" cy="0" r="6.5" fill="none" stroke="#b07880" stroke-width="1" />
          <line x1="-3" y1="-1" x2="3" y2="-1" stroke="#b07880" stroke-width="0.8" opacity="0.85" />
          <line x1="0" y1="6.5" x2="0" y2="26" stroke="#b07880" stroke-width="1" />
          <line x1="0" y1="26" x2="-7" y2="38" stroke="#b07880" stroke-width="1" />
          <line x1="0" y1="26" x2="7" y2="38" stroke="#b07880" stroke-width="1" />
          <line x1="0" y1="13" x2="9" y2="9" stroke="#b07880" stroke-width="0.8" />
        </g>

        <text x="30" y="56" text-anchor="middle" fill="#9a7078" font-size="9" font-style="italic">first</text>
        <text x="230" y="56" text-anchor="middle" fill="#9a7078" font-size="9" font-style="italic">middle</text>
        <text x="430" y="56" text-anchor="middle" fill="#9a7078" font-size="9" font-style="italic">last</text>
      </g>

      <text x="390" y="150" text-anchor="middle" fill="#c0a0a8" font-size="11.6" font-style="italic">“The first one does not see, the middle one does not see, the last one does not see.”</text>
      <text x="390" y="168" text-anchor="middle" fill="#886070" font-size="10.5" font-style="italic">purimopi na passati, majjhimopi na passati, pacchimopi na passati</text>

      <line x1="40" y1="184" x2="740" y2="184" stroke="#a06070" stroke-opacity="0.22" stroke-width="0.6" />
      <text x="390" y="206" text-anchor="middle" fill="#b8a0a8" font-size="11.4">So the brahmins’ faith turns out to be <tspan font-weight="bold" fill="#d0a0a8">without foundation</tspan> — <tspan font-style="italic" fill="#886070">amūlikā saddhā</tspan></text>
    </g>
  </g>

  <!-- ===================== PHASE 4 - FIVE GROUNDS, TWO OUTCOMES ===================== -->
  <g id="five-grounds" transform="translate(0, 670)">
    <line x1="100" y1="18" x2="820" y2="18" stroke="url(#tierGrad)" stroke-width="0.8" />
    <text x="460" y="25" text-anchor="middle" fill="#c8a040" font-size="12" font-weight="bold" letter-spacing="2">FIVE GROUNDS, TWO OUTCOMES · PAÑCA DHAMMĀ DVEDHĀ VIPĀKĀ</text>
    <text x="460" y="51" text-anchor="middle" fill="#708090" font-size="11" font-style="italic">Whatever is fully accepted may yet be empty, hollow, false; what is not accepted may yet be factual, true, not otherwise</text>

    <g id="grounds-card" transform="translate(70, 66)">
      <rect x="0" y="0" width="780" height="332" rx="8" fill="url(#cardNeutral)" stroke="#6888a0" stroke-opacity="0.4" stroke-width="0.9" filter="url(#shadowDrop)" />

      <!-- two outcome circles; the five grounds fork to both -->
      <circle cx="104" cy="180" r="54" fill="url(#cardFalse)" stroke="#a06070" stroke-opacity="0.5" stroke-width="0.9" />
      <circle cx="676" cy="180" r="54" fill="url(#cardTrue)" stroke="#60a088" stroke-opacity="0.5" stroke-width="0.9" />

      <g id="grounds-arrows" fill="none" stroke-linecap="round" stroke-linejoin="round">
        <path d="M 258 100 L 176 100 M 182 96 L 176 100 L 182 104" stroke="#a06070" stroke-opacity="0.78" stroke-width="0.9" />
        <path d="M 548 100 L 612 100 M 606 96 L 612 100 L 606 104" stroke="#60a088" stroke-opacity="0.78" stroke-width="0.9" />
        <path d="M 258 140 L 176 140 M 182 136 L 176 140 L 182 144" stroke="#a06070" stroke-opacity="0.78" stroke-width="0.9" />
        <path d="M 548 140 L 612 140 M 606 136 L 612 140 L 606 144" stroke="#60a088" stroke-opacity="0.78" stroke-width="0.9" />
        <path d="M 258 180 L 176 180 M 182 176 L 176 180 L 182 184" stroke="#a06070" stroke-opacity="0.78" stroke-width="0.9" />
        <path d="M 548 180 L 612 180 M 606 176 L 612 180 L 606 184" stroke="#60a088" stroke-opacity="0.78" stroke-width="0.9" />
        <path d="M 258 220 L 176 220 M 182 216 L 176 220 L 182 224" stroke="#a06070" stroke-opacity="0.78" stroke-width="0.9" />
        <path d="M 548 220 L 612 220 M 606 216 L 612 220 L 606 224" stroke="#60a088" stroke-opacity="0.78" stroke-width="0.9" />
        <path d="M 258 260 L 176 260 M 182 256 L 176 260 L 182 264" stroke="#a06070" stroke-opacity="0.78" stroke-width="0.9" />
        <path d="M 548 260 L 612 260 M 606 256 L 612 260 L 606 264" stroke="#60a088" stroke-opacity="0.78" stroke-width="0.9" />
      </g>

      <text x="104" y="176" text-anchor="middle" fill="#d0a0a8" font-size="11" font-weight="bold">MAY BE</text>
      <text x="104" y="191" text-anchor="middle" fill="#d0a0a8" font-size="11" font-weight="bold">FALSE</text>
      <text x="104" y="250" text-anchor="middle" fill="#886070" font-size="9" font-style="italic">rittaṁ tucchaṁ musā</text>
      <text x="676" y="176" text-anchor="middle" fill="#98d0b0" font-size="11" font-weight="bold">MAY BE</text>
      <text x="676" y="191" text-anchor="middle" fill="#98d0b0" font-size="11" font-weight="bold">TRUE</text>
      <text x="676" y="250" text-anchor="middle" fill="#688880" font-size="9" font-style="italic">bhūtaṁ tacchaṁ anaññathā</text>

      <text x="390" y="38" text-anchor="middle" fill="#c8a040" font-size="10.5" font-weight="bold" letter-spacing="1.5">THE FIVE GROUNDS</text>
      <text x="390" y="56" text-anchor="middle" fill="#708090" font-size="9" font-style="italic">none of these settles whether a thing is true</text>

      <g id="grounds-rows" font-size="11.5">
        <g transform="translate(0, 100)">
          <circle cx="280" cy="0" r="11" fill="none" stroke="#c8a040" stroke-opacity="0.6" stroke-width="0.9" />
          <text x="280" y="3" text-anchor="middle" fill="#c8a040" font-size="10" font-weight="bold">1</text>
          <g transform="translate(306, 0) scale(1)"><g transform="translate(-12, -12)"><g fill="none" stroke="#c8a040" stroke-width="1.2" stroke-linecap="round" stroke-linejoin="round"><path d="M 12 3 L 12 15" /><path d="M 8 3 L 16 3" stroke-width="0.9" /><circle cx="12" cy="3" r="1.2" fill="#ffd700" stroke="none" /><circle cx="12" cy="15" r="1.9" /><path d="M 10.5 16 L 8 19 L 6 21" stroke-width="0.9" /><path d="M 12 16 L 12 21" stroke-width="0.9" /><path d="M 13.5 16 L 16 19 L 18 21" stroke-width="0.9" /></g></g></g>
          <text x="328" y="-2" fill="#c8d8e8" font-weight="bold">Faith</text>
          <text x="328" y="14" fill="#708090" font-size="10" font-style="italic">saddhā</text>
        </g>
        <g transform="translate(0, 140)">
          <circle cx="280" cy="0" r="11" fill="none" stroke="#c8a040" stroke-opacity="0.6" stroke-width="0.9" />
          <text x="280" y="3" text-anchor="middle" fill="#c8a040" font-size="10" font-weight="bold">2</text>
          <g transform="translate(306, -5) scale(1.5)"><g fill="none" stroke="#b89878" stroke-width="1.1" stroke-linecap="round" stroke-linejoin="round"><path d="M 0 3 C -4 -2, -9 1, 0 9 C 9 1, 4 -2, 0 3 Z" /></g></g>
          <text x="328" y="-2" fill="#c8d8e8" font-weight="bold">Inclination</text>
          <text x="328" y="14" fill="#708090" font-size="10" font-style="italic">ruci</text>
        </g>
        <g transform="translate(0, 180)">
          <circle cx="280" cy="0" r="11" fill="none" stroke="#c8a040" stroke-opacity="0.6" stroke-width="0.9" />
          <text x="280" y="2" text-anchor="middle" fill="#c8a040" font-size="10" font-weight="bold">3</text>
          <g transform="translate(306, 0) scale(1)"><g transform="translate(-12,-12)"><g transform="translate(12, 12) scale(1.408) translate(-10, -9)"><path d="M 14 2 Q 6 2, 6 10 Q 6 16, 10 16" fill="none" stroke="#7888a0" stroke-width="1" stroke-linecap="round"/><path d="M 10 10 Q 12 8, 12 12" fill="none" stroke="#7888a0" stroke-width="0.7" stroke-linecap="round"/></g></g></g>
          <text x="328" y="-2" fill="#c8d8e8" font-weight="bold">Oral tradition</text>
          <text x="328" y="14" fill="#708090" font-size="10" font-style="italic">anussava</text>
        </g>
        <g transform="translate(0, 220)">
          <circle cx="280" cy="0" r="11" fill="none" stroke="#c8a040" stroke-opacity="0.6" stroke-width="0.9" />
          <text x="280" y="2" text-anchor="middle" fill="#c8a040" font-size="10" font-weight="bold">4</text>
          <g transform="translate(306, 0) scale(1)"><g transform="translate(-12,-13)"><g transform="translate(12, 13) scale(0.98)"><g fill="none" stroke="#c8a040" stroke-linecap="round" stroke-linejoin="round"><circle cx="0" cy="-3" r="6" stroke-width="1" /><circle cx="0" cy="-3" r="2" fill="#c8a040" fill-opacity="0.2" stroke-width="0.8" /><line x1="4" y1="1" x2="8" y2="5" stroke-width="0.9" /></g></g></g></g>
          <text x="328" y="-2" fill="#c8d8e8" font-weight="bold">Method of thinking</text>
          <text x="328" y="14" fill="#708090" font-size="10" font-style="italic">ākāraparivitakka</text>
        </g>
        <g transform="translate(0, 260)">
          <circle cx="280" cy="0" r="11" fill="none" stroke="#c8a040" stroke-opacity="0.6" stroke-width="0.9" />
          <text x="280" y="2" text-anchor="middle" fill="#c8a040" font-size="10" font-weight="bold">5</text>
          <g transform="translate(306, -2) scale(1)"><g opacity="0.9" stroke="#88b8a0" fill="none" stroke-linecap="round" stroke-linejoin="round"><path d="M -9 0 Q 0 -7, 9 0" stroke-width="1.1" /><path d="M -9 0 Q 0 7, 9 0" stroke-width="1.1" /><circle cx="0" cy="0" r="2.4" stroke-width="0.9" /><path d="M 4 6 L 7 9 L 11 4" stroke="#a0d0b8" stroke-width="1.1" /></g></g>
          <text x="328" y="-2" fill="#c8d8e8" font-weight="bold">Acceptance of a view after consideration</text>
          <text x="328" y="14" fill="#708090" font-size="10" font-style="italic">diṭṭhinijjhānakkhanti</text>
        </g>
      </g>

      <text x="390" y="304" text-anchor="middle" fill="#90a088" font-size="10.5" font-style="italic">Acceptance need not make it true; rejection need not make it false</text>
    </g>
  </g>

  <!-- ===================== PHASE 5 - PRESERVATION OF TRUTH ===================== -->
  <g id="preserve-truth" transform="translate(0, 1100)">
    <line x1="100" y1="18" x2="820" y2="18" stroke="url(#tierGrad)" stroke-width="0.8" />
    <text x="460" y="25" text-anchor="middle" fill="#c8a040" font-size="12" font-weight="bold" letter-spacing="2">PRESERVATION OF TRUTH · SACCĀNURAKKHAṆĀ</text>
    <text x="460" y="51" text-anchor="middle" fill="#708090" font-size="11" font-style="italic">How truth is preserved: speak honestly of your ground, without leaping to a final verdict</text>

    <g id="preserve-card" transform="translate(70, 66)">
      <rect x="0" y="0" width="780" height="96" rx="8" fill="url(#cardTrue)" stroke="#60a088" stroke-opacity="0.4" stroke-width="0.9" filter="url(#shadowDrop)" />
      <text x="390" y="32" text-anchor="middle" fill="#b8d8d0" font-size="12.2">One states honestly: <tspan font-weight="bold" fill="#c8e0d8">“Thus is my faith”</tspan> — likewise of inclination, oral tradition, reasoning, and view</text>
      <text x="390" y="52" text-anchor="middle" fill="#688880" font-size="10.5" font-style="italic">‘evaṁ me saddhā’ti — iti vadaṁ saccamanurakkhati</text>
      <text x="390" y="78" text-anchor="middle" fill="#90c0b0" font-size="11.4" font-style="italic">… yet does not come to a definite conclusion: “This alone is true.” Thus, there is preservation of truth.</text>
    </g>
  </g>

  <!-- ===================== PHASE 6 - THREE MOVEMENTS OF TRUTH ===================== -->
  <g id="three-movements" transform="translate(0, 1290)">
    <line x1="100" y1="18" x2="820" y2="18" stroke="url(#tierGrad)" stroke-width="0.8" />
    <text x="460" y="25" text-anchor="middle" fill="#c8a040" font-size="12" font-weight="bold" letter-spacing="2">THREE MOVEMENTS OF TRUTH</text>
    <text x="460" y="51" text-anchor="middle" fill="#708090" font-size="11" font-style="italic">Preservation orients honesty; awakening verifies and realizes; final arrival completes through cultivation</text>

    <g id="movements-cards" transform="translate(70, 66)">
      <!-- connectors -->
      <path d="M 240 62 L 270 62 M 264 58 L 270 62 L 264 66" fill="none" stroke="#c8a040" stroke-opacity="0.6" stroke-width="1.1" stroke-linecap="round" stroke-linejoin="round" />
      <path d="M 514 62 L 544 62 M 538 58 L 544 62 L 538 66" fill="none" stroke="#c8a040" stroke-opacity="0.6" stroke-width="1.1" stroke-linecap="round" stroke-linejoin="round" />

      <g id="movement-1" transform="translate(0, 0)">
        <rect x="0" y="0" width="232" height="124" rx="8" fill="url(#cardNeutral)" stroke="#7888a0" stroke-opacity="0.42" stroke-width="0.9" filter="url(#shadowDrop)" />
        <text x="116" y="34" text-anchor="middle" fill="#c8d8e8" font-size="13" font-weight="bold">Preservation</text>
        <text x="116" y="52" text-anchor="middle" fill="#708878" font-size="10.5" font-style="italic">saccānurakkhaṇā</text>
        <line x1="40" y1="64" x2="192" y2="64" stroke="#7888a0" stroke-opacity="0.22" stroke-width="0.6" />
        <text x="116" y="86" text-anchor="middle" fill="#a0b0c8" font-size="10.6">Honest holding of one’s</text>
        <text x="116" y="102" text-anchor="middle" fill="#a0b0c8" font-size="10.6">ground; no dogmatic verdict</text>
      </g>

      <g id="movement-2" transform="translate(274, 0)">
        <rect x="0" y="0" width="232" height="124" rx="8" fill="url(#cardExamine)" stroke="#60a088" stroke-opacity="0.45" stroke-width="0.9" filter="url(#shadowDrop)" />
        <text x="116" y="34" text-anchor="middle" fill="#c8e0d8" font-size="13" font-weight="bold">Awakening</text>
        <text x="116" y="52" text-anchor="middle" fill="#688880" font-size="10.5" font-style="italic">saccānubodha</text>
        <line x1="40" y1="64" x2="192" y2="64" stroke="#60a088" stroke-opacity="0.22" stroke-width="0.6" />
        <text x="116" y="86" text-anchor="middle" fill="#a0c0b8" font-size="10.6">Examine, practice, realize</text>
        <text x="116" y="102" text-anchor="middle" fill="#a0c0b8" font-size="10.6">and penetrate with wisdom</text>
      </g>

      <g id="movement-3" transform="translate(548, 0)">
        <rect x="0" y="0" width="232" height="124" rx="8" fill="url(#stg11)" stroke="#c8a040" stroke-opacity="0.5" stroke-width="0.9" filter="url(#shadowDrop)" />
        <text x="116" y="34" text-anchor="middle" fill="#e0d0a0" font-size="13" font-weight="bold">Final arrival</text>
        <text x="116" y="52" text-anchor="middle" fill="#9a8a58" font-size="10.5" font-style="italic">saccānuppatti</text>
        <line x1="40" y1="64" x2="192" y2="64" stroke="#c8a040" stroke-opacity="0.25" stroke-width="0.6" />
        <text x="116" y="86" text-anchor="middle" fill="#c8c0a0" font-size="10.6">Diligent practice, cultivation,</text>
        <text x="116" y="102" text-anchor="middle" fill="#c8c0a0" font-size="10.6">and frequent practice of these</text>
      </g>
    </g>
  </g>

  <!-- ===================== PHASE 7 - THE THREE GATES OF EXAMINATION ===================== -->
  <g id="examination" transform="translate(0, 1510)">
    <line x1="100" y1="18" x2="820" y2="18" stroke="url(#tierGrad)" stroke-width="0.8" />
    <text x="460" y="25" text-anchor="middle" fill="#c8a040" font-size="12" font-weight="bold" letter-spacing="2">AWAKENING: THE THREE GATES OF EXAMINATION</text>
    <text x="460" y="51" text-anchor="middle" fill="#708090" font-size="11" font-style="italic">Before placing faith, a householder examines a teacher in three domains — tīsu dhammesu samannesati</text>

    <g id="gates-card" transform="translate(70, 66)">
      <rect x="0" y="0" width="780" height="232" rx="8" fill="url(#cardExamine)" stroke="#60a088" stroke-opacity="0.4" stroke-width="0.9" filter="url(#shadowDrop)" />
      <text x="390" y="30" text-anchor="middle" fill="#90b0b0" font-size="11" font-style="italic">Examine for anything that could distort the ability of a teacher to know and see.</text>

      <!-- three gate panels -->
      <g id="gate-greed" transform="translate(24, 44)">
        <rect x="0" y="0" width="232" height="108" rx="7" fill="#1a1620" stroke="#a06070" stroke-opacity="0.4" stroke-width="0.7" />
        <g transform="translate(116, 26)" stroke-linecap="round" stroke-linejoin="round" fill="none">
          <circle cx="0" cy="2" r="3.5" stroke="#b07880" stroke-width="0.9" opacity="0.7" />
          <path d="M -11 8 C -12 -2, -7 -6, -3 -3" stroke="#b07880" stroke-width="1.1" />
          <path d="M -4 9 C -5 -3, 0 -7, 3 -3" stroke="#b07880" stroke-width="1.1" />
          <path d="M 3 9 C 3 -2, 8 -5, 11 -1" stroke="#b07880" stroke-width="1.1" />
        </g>
        <text x="116" y="54" text-anchor="middle" fill="#d0a0a8" font-size="12" font-weight="bold">Greed</text>
        <text x="116" y="71" text-anchor="middle" fill="#886070" font-size="10" font-style="italic">lobhanīyā dhammā</text>
        <g transform="translate(96, 86)"><circle cx="0" cy="0" r="6.5" fill="none" stroke="#60a088" stroke-width="0.9" /><path d="M -3 0 L -1 2.5 L 3.5 -2.5" fill="none" stroke="#80c0a0" stroke-width="1.1" stroke-linecap="round" stroke-linejoin="round" /></g>
        <text x="112" y="90" fill="#80a898" font-size="9.5" font-style="italic">purified</text>
      </g>

      <g id="gate-aversion" transform="translate(274, 44)">
        <rect x="0" y="0" width="232" height="108" rx="7" fill="#1a1620" stroke="#a06070" stroke-opacity="0.4" stroke-width="0.7" />
        <g transform="translate(116, 26) scale(1.35)"><g transform="translate(-12,-12)"><g transform="translate(12, 12) scale(0.46726) translate(-22, -10)"><path d="M 0 10 C 8 3, 16 17, 24 6 C 32 -2, 38 12, 44 8" fill="none" stroke="#b07880" stroke-width="1.2" stroke-linecap="round" /><path d="M 6 6 L 4 1 L 8 4" fill="none" stroke="#b07880" stroke-width="1" stroke-linejoin="round" /><path d="M 14 14 L 12 19 L 16 16" fill="none" stroke="#b07880" stroke-width="1" stroke-linejoin="round" /><path d="M 22 6 L 20 1 L 24 4" fill="none" stroke="#b07880" stroke-width="1" stroke-linejoin="round" /><path d="M 30 6 L 28 11 L 32 8" fill="none" stroke="#b07880" stroke-width="1" stroke-linejoin="round" /><path d="M 44 8 L 42 3 L 46 6" fill="none" stroke="#b07880" stroke-width="1" stroke-linejoin="round" /></g></g></g>
        <text x="116" y="54" text-anchor="middle" fill="#d0a0a8" font-size="12" font-weight="bold">Aversion</text>
        <text x="116" y="71" text-anchor="middle" fill="#886070" font-size="10" font-style="italic">dosanīyā dhammā</text>
        <g transform="translate(96, 86)"><circle cx="0" cy="0" r="6.5" fill="none" stroke="#60a088" stroke-width="0.9" /><path d="M -3 0 L -1 2.5 L 3.5 -2.5" fill="none" stroke="#80c0a0" stroke-width="1.1" stroke-linecap="round" stroke-linejoin="round" /></g>
        <text x="112" y="90" fill="#80a898" font-size="9.5" font-style="italic">purified</text>
      </g>

      <g id="gate-delusion" transform="translate(524, 44)">
        <rect x="0" y="0" width="232" height="108" rx="7" fill="#1a1620" stroke="#a06070" stroke-opacity="0.4" stroke-width="0.7" />
        <g transform="translate(116, 26)" stroke-linecap="round" stroke-linejoin="round" fill="none" stroke="#b07880" stroke-width="1.1">
          <path d="M 0 0 C 0 -6, 9 -6, 9 1 C 9 9, -2 9, -6 3 C -9 -2, -4 -9, 4 -9" />
        </g>
        <text x="116" y="54" text-anchor="middle" fill="#d0a0a8" font-size="12" font-weight="bold">Delusion</text>
        <text x="116" y="71" text-anchor="middle" fill="#886070" font-size="10" font-style="italic">mohanīyā dhammā</text>
        <g transform="translate(96, 86)"><circle cx="0" cy="0" r="6.5" fill="none" stroke="#60a088" stroke-width="0.9" /><path d="M -3 0 L -1 2.5 L 3.5 -2.5" fill="none" stroke="#80c0a0" stroke-width="1.1" stroke-linecap="round" stroke-linejoin="round" /></g>
        <text x="112" y="90" fill="#80a898" font-size="9.5" font-style="italic">purified</text>
      </g>

      <line x1="24" y1="168" x2="756" y2="168" stroke="#60a088" stroke-opacity="0.2" stroke-width="0.6" />
      <text x="390" y="190" text-anchor="middle" fill="#a0b0c8" font-size="11">Found pure, his conduct and his profound, subtle Dhamma <tspan font-style="italic" fill="#6888a0">(gambhīro … atakkāvacaro)</tspan> cannot come from one so affected</text>
      <text x="390" y="214" text-anchor="middle" fill="#90c0b0" font-size="11.6" font-weight="bold">→ Then he places faith in him <tspan font-weight="normal" font-style="italic" fill="#688880">· saddhaṁ niveseti</tspan></text>
    </g>
  </g>

  <!-- ===================== PHASE 8 - THE GRADUAL CASCADE ===================== -->
  <g id="cascade" transform="translate(0, 1850)">
    <line x1="100" y1="18" x2="820" y2="18" stroke="url(#tierGrad)" stroke-width="0.8" />
    <text x="460" y="25" text-anchor="middle" fill="#c8a040" font-size="12" font-weight="bold" letter-spacing="2">THE GRADUAL CASCADE · FROM FAITH TO STRIVING</text>
    <text x="460" y="51" text-anchor="middle" fill="#708090" font-size="11" font-style="italic">Each step is the proximate support for the next — striving is most helpful for the final arrival at the truth</text>

    <!-- diagonal ascent guide behind the rungs -->
    <line x1="244" y1="72" x2="552" y2="650" stroke="#c8a040" stroke-opacity="0.12" stroke-width="2" />

    <!-- side annotation boxes: reposition via each outer translate only -->
    <g id="cascade-notes">
      <g id="cascade-note" transform="translate(18, 300)" opacity="0.6">
        <rect x="0" y="0" width="186" height="78" rx="6" fill="#0e1a2e" stroke="#5a6850" stroke-opacity="0.4" stroke-width="0.7" />
        <text x="93" y="24" text-anchor="middle" fill="#9aa890" font-size="10.5" font-style="italic">Each step is most helpful</text>
        <text x="93" y="40" text-anchor="middle" fill="#9aa890" font-size="10.5" font-style="italic">for the next</text>
        <line x1="16" y1="50" x2="170" y2="50" stroke="#4a5840" stroke-opacity="0.5" stroke-width="0.5" />
        <text x="93" y="68" text-anchor="middle" fill="#6a7858" font-size="10" font-style="italic">anupubbaṁ · bahukāro</text>
      </g>
      <g id="cascade-note-right" transform="translate(716, 300)" opacity="0.6">
        <rect x="0" y="0" width="192" height="78" rx="6" fill="#0e1a2e" stroke="#5a6850" stroke-opacity="0.4" stroke-width="0.7" />
        <text x="93" y="24" text-anchor="middle" fill="#9aa890" font-size="10.5" font-style="italic">Striving is most helpful</text>
        <text x="93" y="40" text-anchor="middle" fill="#9aa890" font-size="10.5" font-style="italic">for the final arrival at the truth</text>
        <line x1="16" y1="50" x2="170" y2="50" stroke="#4a5840" stroke-opacity="0.5" stroke-width="0.5" />
        <text x="96" y="68" text-anchor="middle" fill="#6a7858" font-size="10" font-style="italic">saccānuppattiyā · padhānaṁ bahukāraṁ</text>
      </g>
    </g>

    <!-- connectors -->
    <g id="cascade-links" fill="none" stroke-linecap="round">
      <path d="M 254 118 C 254 122, 268 122, 268 126" stroke="#52707a" stroke-width="1.2" opacity="0.4" />
      <path d="M 268 166 C 268 170, 282 170, 282 174" stroke="#54727a" stroke-width="1.2" opacity="0.42" />
      <path d="M 282 214 C 282 218, 296 218, 296 222" stroke="#587870" stroke-width="1.2" opacity="0.44" />
      <path d="M 296 262 C 296 266, 310 266, 310 270" stroke="#5e7868" stroke-width="1.2" opacity="0.46" />
      <path d="M 310 310 C 310 314, 324 314, 324 318" stroke="#6a7860" stroke-width="1.2" opacity="0.48" />
      <path d="M 324 358 C 324 362, 338 362, 338 366" stroke="#767858" stroke-width="1.2" opacity="0.5" />
      <path d="M 338 406 C 338 410, 352 410, 352 414" stroke="#827850" stroke-width="1.2" opacity="0.52" />
      <path d="M 352 454 C 352 458, 366 458, 366 462" stroke="#8e7848" stroke-width="1.2" opacity="0.54" />
      <path d="M 366 502 C 366 506, 380 506, 380 510" stroke="#9a7842" stroke-width="1.2" opacity="0.56" />
      <path d="M 380 550 C 380 554, 394 554, 394 558" stroke="#a6783e" stroke-width="1.2" opacity="0.58" />
      <path d="M 394 598 C 394 602, 408 602, 408 606" stroke="#b2783a" stroke-width="1.2" opacity="0.6" />
      <path d="M 408 646 C 420 660, 445 668, 460 672" stroke="#c08838" stroke-width="1.4" opacity="0.55" />
    </g>

    <!-- 12 rungs: faith (top, steel) to striving (bottom, gold) -->
    <g id="cascade-rungs">
      <g id="rung-1" transform="translate(232, 78)">
        <g filter="url(#shadowDrop)"><rect x="0" y="0" width="300" height="40" rx="9" fill="url(#stg1)" stroke="#7088a0" stroke-opacity="0.4" stroke-width="0.9" /></g>
        <circle cx="22" cy="20" r="11" fill="none" stroke="#b89850" stroke-opacity="0.55" stroke-width="0.9" />
        <text x="22" y="23" text-anchor="middle" fill="#c8a040" font-size="11" font-weight="bold">1</text>
        <text x="44" y="18" fill="#aebccc" font-size="12.5" font-weight="bold">Faith</text>
        <text x="44" y="33" fill="#74808e" font-size="10.5" font-style="italic">saddhā</text>
      </g>
      <g id="rung-2" transform="translate(246, 126)">
        <g filter="url(#shadowDrop)"><rect x="0" y="0" width="300" height="40" rx="9" fill="url(#stg2)" stroke="#7088a0" stroke-opacity="0.4" stroke-width="0.9" /></g>
        <circle cx="22" cy="20" r="11" fill="none" stroke="#b89850" stroke-opacity="0.55" stroke-width="0.9" />
        <text x="22" y="23" text-anchor="middle" fill="#c8a040" font-size="11" font-weight="bold">2</text>
        <text x="44" y="18" fill="#aebcc8" font-size="12.5" font-weight="bold">Visiting</text>
        <text x="44" y="33" fill="#74808e" font-size="10.5" font-style="italic">upasaṅkamana</text>
      </g>
      <g id="rung-3" transform="translate(260, 174)">
        <g filter="url(#shadowDrop)"><rect x="0" y="0" width="300" height="40" rx="9" fill="url(#stg3)" stroke="#6e8290" stroke-opacity="0.42" stroke-width="0.9" /></g>
        <circle cx="22" cy="20" r="11" fill="none" stroke="#b89850" stroke-opacity="0.55" stroke-width="0.9" />
        <text x="22" y="22" text-anchor="middle" fill="#c8a040" font-size="11" font-weight="bold">3</text>
        <text x="44" y="18" fill="#aebcc4" font-size="12.5" font-weight="bold">Paying respect</text>
        <text x="44" y="33" fill="#76808c" font-size="10.5" font-style="italic">payirupāsanā</text>
      </g>
      <g id="rung-4" transform="translate(274, 222)">
        <g filter="url(#shadowDrop)"><rect x="0" y="0" width="300" height="40" rx="9" fill="url(#stg4)" stroke="#6c8480" stroke-opacity="0.42" stroke-width="0.9" /></g>
        <circle cx="22" cy="20" r="11" fill="none" stroke="#b89850" stroke-opacity="0.55" stroke-width="0.9" />
        <text x="22" y="23" text-anchor="middle" fill="#c8a040" font-size="11" font-weight="bold">4</text>
        <text x="44" y="18" fill="#aebcbe" font-size="12.5" font-weight="bold">Paying attention</text>
        <text x="44" y="33" fill="#78827e" font-size="10.5" font-style="italic">sotāvadhāna</text>
      </g>
      <g id="rung-5" transform="translate(288, 270)">
        <g filter="url(#shadowDrop)"><rect x="0" y="0" width="300" height="40" rx="9" fill="url(#stg5)" stroke="#6e8870" stroke-opacity="0.44" stroke-width="0.9" /></g>
        <circle cx="22" cy="20" r="11" fill="none" stroke="#b89850" stroke-opacity="0.55" stroke-width="0.9" />
        <text x="22" y="23" text-anchor="middle" fill="#c8a040" font-size="11" font-weight="bold">5</text>
        <text x="44" y="18" fill="#b0bcb6" font-size="12.5" font-weight="bold">Hearing the Dhamma</text>
        <text x="44" y="33" fill="#7a8478" font-size="10.5" font-style="italic">dhammassavana</text>
      </g>
      <g id="rung-6" transform="translate(302, 318)">
        <g filter="url(#shadowDrop)"><rect x="0" y="0" width="300" height="40" rx="9" fill="url(#stg6)" stroke="#74886a" stroke-opacity="0.46" stroke-width="0.9" /></g>
        <circle cx="22" cy="20" r="11" fill="none" stroke="#b89850" stroke-opacity="0.55" stroke-width="0.9" />
        <text x="22" y="24" text-anchor="middle" fill="#c8a040" font-size="11" font-weight="bold">6</text>
        <text x="44" y="18" fill="#b4bcae" font-size="12.5" font-weight="bold">Remembering the Dhamma</text>
        <text x="44" y="33" fill="#7e8470" font-size="10.5" font-style="italic">dhammadhāraṇā</text>
      </g>
      <g id="rung-7" transform="translate(316, 366)">
        <g filter="url(#shadowDrop)"><rect x="0" y="0" width="300" height="40" rx="9" fill="url(#stg7)" stroke="#7c8862" stroke-opacity="0.48" stroke-width="0.9" /></g>
        <circle cx="22" cy="20" r="11" fill="none" stroke="#b89850" stroke-opacity="0.55" stroke-width="0.9" />
        <text x="22" y="23" text-anchor="middle" fill="#c8a040" font-size="11" font-weight="bold">7</text>
        <text x="44" y="18" fill="#bcbca6" font-size="12.5" font-weight="bold">Examining meaning of the Dhamma</text>
        <text x="44" y="33" fill="#86826a" font-size="10.5" font-style="italic">atthūpaparikkhā</text>
      </g>
      <g id="rung-8" transform="translate(330, 414)">
        <g filter="url(#shadowDrop)"><rect x="0" y="0" width="300" height="40" rx="9" fill="url(#stg8)" stroke="#84885a" stroke-opacity="0.5" stroke-width="0.9" /></g>
        <circle cx="22" cy="20" r="11" fill="none" stroke="#b89850" stroke-opacity="0.6" stroke-width="0.9" />
        <text x="22" y="24" text-anchor="middle" fill="#c8a040" font-size="11" font-weight="bold">8</text>
        <text x="44" y="18" fill="#c2bca0" font-size="12.5" font-weight="bold">Reflective acceptance of the Dhamma</text>
        <text x="44" y="33" fill="#8a8266" font-size="10.5" font-style="italic">dhammanijjhānakkhanti</text>
      </g>
      <g id="rung-9" transform="translate(344, 462)">
        <g filter="url(#shadowDrop)"><rect x="0" y="0" width="300" height="40" rx="9" fill="url(#stg9)" stroke="#8c8852" stroke-opacity="0.52" stroke-width="0.9" /></g>
        <circle cx="22" cy="20" r="11" fill="none" stroke="#c8a040" stroke-opacity="0.6" stroke-width="0.9" />
        <text x="22" y="22" text-anchor="middle" fill="#c8a040" font-size="11" font-weight="bold">9</text>
        <text x="44" y="18" fill="#c8bc98" font-size="12.5" font-weight="bold">Aspiration</text>
        <text x="44" y="33" fill="#8e8460" font-size="10.5" font-style="italic">chanda</text>
      </g>
      <g id="rung-10" transform="translate(358, 510)">
        <g filter="url(#shadowDrop)"><rect x="0" y="0" width="300" height="40" rx="9" fill="url(#stg10)" stroke="#98884a" stroke-opacity="0.54" stroke-width="1" /></g>
        <circle cx="22" cy="20" r="11" fill="none" stroke="#c8a040" stroke-opacity="0.65" stroke-width="0.9" />
        <text x="22" y="23" text-anchor="middle" fill="#d4b048" font-size="11" font-weight="bold">10</text>
        <text x="44" y="18" fill="#ccbc90" font-size="12.5" font-weight="bold">Application of will</text>
        <text x="44" y="33" fill="#94865c" font-size="10.5" font-style="italic">ussāha</text>
      </g>
      <g id="rung-11" transform="translate(372, 558)">
        <g filter="url(#shadowDrop)"><rect x="0" y="0" width="300" height="40" rx="9" fill="url(#stg11)" stroke="#a48844" stroke-opacity="0.56" stroke-width="1" /></g>
        <circle cx="22" cy="20" r="11" fill="none" stroke="#c8a040" stroke-opacity="0.7" stroke-width="0.9" />
        <text x="22" y="23" text-anchor="middle" fill="#d4b048" font-size="11" font-weight="bold">11</text>
        <text x="44" y="18" fill="#d0be8a" font-size="12.5" font-weight="bold">Deliberation</text>
        <text x="44" y="33" fill="#9a8a58" font-size="10.5" font-style="italic">tulanā</text>
      </g>
      <g id="rung-12" transform="translate(386, 606)">
        <g filter="url(#shadowDrop)"><rect x="0" y="0" width="300" height="40" rx="9" fill="url(#stg12)" stroke="#b89040" stroke-opacity="0.62" stroke-width="1.1" /></g>
        <circle cx="22" cy="20" r="11" fill="none" stroke="#ffd700" stroke-opacity="0.7" stroke-width="1" />
        <text x="22" y="23" text-anchor="middle" fill="#ffd700" font-size="11" font-weight="bold">12</text>
        <text x="44" y="18" fill="#dcc684" font-size="12.5" font-weight="bold">Striving</text>
        <text x="44" y="33" fill="#a48c54" font-size="10.5" font-style="italic">padhāna · most helpful for arrival</text>
      </g>
    </g>

    <!-- apex: final arrival at the truth -->
    <g id="cascade-apex" transform="translate(0, 0)">
      <ellipse cx="460" cy="702" rx="250" ry="60" fill="url(#libGlow)" />
      <g filter="url(#shadowDrop)"><rect x="250" y="664" width="420" height="78" rx="9" fill="url(#stg12)" stroke="#c8a040" stroke-opacity="0.5" stroke-width="0.9" /></g>
      <g filter="url(#glow1)"><text x="460" y="690" text-anchor="middle" fill="#ffd700" font-size="13.5" font-weight="bold" letter-spacing="1">FINAL ARRIVAL AT THE TRUTH</text></g>
      <text x="460" y="708" text-anchor="middle" fill="#c8a868" font-size="11" font-style="italic">saccānuppatti</text>
      <line x1="330" y1="718" x2="590" y2="718" stroke="#c8a040" stroke-opacity="0.2" stroke-width="0.5" />
      <text x="460" y="734" text-anchor="middle" fill="#cfc398" font-size="10.4" font-style="italic">Realizing the highest truth with the body, penetrating it with wisdom</text>
    </g>
  </g>

  <!-- ===================== PHASE 9 - FOOTER ===================== -->
  <g id="footer" transform="translate(0, 2610)">
    <line x1="300" y1="0" x2="620" y2="0" stroke="#304058" stroke-opacity="0.3" stroke-width="0.5" />
    <a href="https://wordsofthebuddha.org/mn95" target="_blank" rel="noopener noreferrer">
      <text x="460" y="17" text-anchor="middle" fill="#405060" font-size="10" letter-spacing="1">wordsofthebuddha.org/mn95</text>
    </a>
    <g transform="translate(460, 36) scale(0.25)" fill="none" stroke="#8a9ab0" stroke-width="2.5" opacity="0.18">
      <path d="M 0 -22 C 14 -8 14 12 0 18 C -14 12 -14 -8 0 -22 Z" transform="translate(-14, 16) rotate(-65)" />
      <path d="M 0 -22 C 14 -8 14 12 0 18 C -14 12 -14 -8 0 -22 Z" transform="translate(14, 16) rotate(65)" />
      <path d="M 0 -22 C 14 -8 14 12 0 18 C -14 12 -14 -8 0 -22 Z" transform="translate(-9, 0) rotate(-25)" />
      <path d="M 0 -22 C 14 -8 14 12 0 18 C -14 12 -14 -8 0 -22 Z" transform="translate(9, 0) rotate(25)" />
      <circle cx="0" cy="-28" r="9" />
    </g>
  </g>

</svg>
